<svg xmlns="http://www.w3.org/2000/svg" viewBox="0 0 32 32" width="32" height="32">
  <defs>
    <linearGradient id="grad1" x1="0%" y1="0%" x2="100%" y2="100%">
      <stop offset="0%" style="stop-color:#667eea;stop-opacity:1" />
      <stop offset="100%" style="stop-color:#764ba2;stop-opacity:1" />
    </linearGradient>
  </defs>
  
  <!-- Background circle -->
  <circle cx="16" cy="16" r="15" fill="url(#grad1)" stroke="#2563eb" stroke-width="1"/>
  
  <!-- Cloud -->
  <path d="M8 18c0-2.2 1.8-4 4-4 0.3 0 0.6 0 0.9 0.1C14.2 12.4 16.4 11 19 11c3.3 0 6 2.7 6 6 0.6 0 1 0.4 1 1s-0.4 1-1 1H8c-0.6 0-1-0.4-1-1z" fill="white" opacity="0.9"/>
  
  <!-- Gear -->
  <g transform="translate(16, 16)">
    <circle cx="0" cy="0" r="3" fill="white" opacity="0.8"/>
    <circle cx="0" cy="0" r="1.5" fill="url(#grad1)"/>
    <path d="M0-6v-1.5M0 6v1.5M6 0h1.5M-6 0h-1.5M4.2-4.2l1.1-1.1M-4.2 4.2l-1.1 1.1M4.2 4.2l1.1 1.1M-4.2-4.2l-1.1-1.1" stroke="white" stroke-width="0.8" opacity="0.8"/>
  </g>
</svg> 